<svg width="30" height="30" viewBox="0 0 30 30" fill="none" xmlns="http://www.w3.org/2000/svg">
<g clip-path="url(#clip0_193_1886)">
<path d="M4.14 0.668723C3.41387 0.682598 3.29131 0.691848 3.07625 0.738098C2.15125 0.936973 1.35112 1.56597 0.934875 2.41697C0.798437 2.6991 0.738312 2.90954 0.67125 3.34891C0.627312 3.63797 0.625 3.82066 0.625 15.256V26.8717H5.25694H9.88887L9.92587 27.1145C10.0276 27.7481 10.3421 28.3817 10.7954 28.8627C11.2625 29.3576 11.8221 29.686 12.4719 29.8432C12.5991 29.8733 12.8281 29.9103 12.9807 29.9242C13.1796 29.9427 15.2562 29.9473 20.0847 29.9427C27.7483 29.9334 27.0222 29.9519 27.6003 29.76C28.6132 29.4224 29.4017 28.6338 29.7371 27.6232C29.9267 27.052 29.9105 27.4614 29.9197 22.4085C29.9244 19.5827 29.9174 17.8159 29.9036 17.6564C29.8619 17.1892 29.7532 16.7915 29.5613 16.4099C29.0896 15.471 28.2617 14.8305 27.2002 14.5877L26.9759 14.5368L23.0516 14.5299L19.125 14.5206L19.1204 9.01223L19.1134 3.50385L19.0602 3.2171C18.9377 2.54879 18.6879 2.06085 18.2231 1.59372C17.8624 1.23297 17.4577 0.983223 16.9605 0.821348C16.4795 0.661786 16.8426 0.671036 10.6034 0.661786C7.50006 0.657161 4.59094 0.659473 4.14 0.668723ZM16.0447 9.13941L16.0494 14.5206L14.4376 14.5299C12.8651 14.5368 12.8165 14.5391 12.5922 14.59C12.2731 14.6617 12.0534 14.738 11.7828 14.8698C10.8301 15.3346 10.1733 16.1833 9.93744 17.2517C9.88887 17.4667 9.88887 17.5222 9.88194 20.6325L9.87269 23.796H6.78781H3.70062V13.7875C3.70062 8.28148 3.70756 3.76979 3.71681 3.76285C3.72375 3.7536 6.50106 3.74897 9.88425 3.75129L16.0378 3.75822L16.0447 9.13941ZM23.5419 17.6818C24.4183 17.9038 25.0658 18.5929 25.2554 19.5064C25.2716 19.5827 25.2832 19.7792 25.2832 19.9457C25.2809 20.1885 25.2693 20.2903 25.2231 20.4707C25.008 21.2939 24.4229 21.8975 23.5997 22.1472C23.4077 22.205 23.3592 22.2097 22.9869 22.2097C22.6331 22.212 22.5591 22.205 22.3995 22.1588C21.5207 21.9044 20.8964 21.243 20.716 20.3759C20.6512 20.0614 20.6674 19.5942 20.753 19.2982C20.9403 18.6577 21.3774 18.135 21.9578 17.8529C22.4712 17.6009 22.9984 17.5454 23.5419 17.6818ZM23.5904 23.796C24.7166 23.8839 25.711 24.1614 26.2914 24.5453C26.4926 24.6794 26.6961 24.8945 26.7678 25.0494L26.8256 25.172V26.0091V26.8485H22.9753H19.125V26.0438C19.125 25.246 19.125 25.2414 19.1805 25.1234C19.3932 24.6655 20.3807 24.1614 21.53 23.9255C21.7797 23.8747 22.2076 23.8145 22.5128 23.7891C22.7279 23.7706 23.3014 23.7752 23.5904 23.796Z" fill="#6A6A6A"/>
<path d="M5.25 6.83377V8.37158H6.78781H8.32563V6.83377V5.29596H6.78781H5.25V6.83377Z" fill="#6A6A6A"/>
<path d="M11.4243 6.83377V8.37158H12.9621H14.4999V6.83377V5.29596H12.9621H11.4243V6.83377Z" fill="#6A6A6A"/>
<path d="M5.25 11.4588V12.9966H6.78781H8.32563V11.4588V9.92096H6.78781H5.25V11.4588Z" fill="#6A6A6A"/>
<path d="M11.4243 11.4588V12.9966H12.9621H14.4999V11.4588V9.92096H12.9621H11.4243V11.4588Z" fill="#6A6A6A"/>
<path d="M5.25 16.0838V17.6216H6.78781H8.32563V16.0838V14.546H6.78781H5.25V16.0838Z" fill="#6A6A6A"/>
<path d="M5.25 20.7088V22.2466H6.78781H8.32563V20.7088V19.171H6.78781H5.25V20.7088Z" fill="#6A6A6A"/>
</g>
<defs>
<clipPath id="clip0_193_1886">
<rect width="30" height="30" fill="white"/>
</clipPath>
</defs>
</svg>
